<?xml version="1.0" encoding="UTF-8"?>
<svg xmlns="http://www.w3.org/2000/svg" xmlns:xlink="http://www.w3.org/1999/xlink" viewBox="0 0 1024 1024" width="1024px" height="1024px">
<g id="surface10144739">
<path style=" stroke:none;fill-rule:nonzero;fill:rgb(0%,41.176471%,68.627453%);fill-opacity:1;" d="M 387.199219 143.359375 C 387.199219 143.359375 256.800781 152.320312 171.519531 220.800781 C 171.121094 220.960938 170.640625 221.199219 170.238281 221.441406 C 155.441406 235.121094 144.320312 256.320312 130.558594 286.71875 C 116.800781 317.121094 102.238281 356.238281 88.960938 400 C 62.480469 487.601562 40.960938 595.121094 40.960938 696.320312 C 40.878906 699.921875 41.761719 703.441406 43.519531 706.558594 C 73.441406 759.121094 128.480469 790.878906 179.839844 810.878906 C 231.199219 830.878906 278.640625 838.878906 302.71875 839.679688 C 309.519531 839.921875 316 836.800781 320 831.359375 L 369.921875 762.238281 C 410.160156 771.761719 457.359375 778.238281 512 778.238281 C 566.640625 778.238281 613.839844 771.761719 654.078125 762.238281 L 704 831.359375 C 708 836.800781 714.480469 839.921875 721.28125 839.679688 C 745.359375 838.878906 792.800781 830.878906 844.160156 810.878906 C 895.519531 790.878906 950.558594 759.121094 980.480469 706.558594 C 982.238281 703.441406 983.121094 699.921875 983.039062 696.320312 C 983.039062 595.121094 961.519531 487.601562 935.039062 400 C 921.761719 356.238281 907.199219 317.121094 893.441406 286.71875 C 879.679688 256.320312 868.558594 235.121094 853.761719 221.441406 C 853.359375 221.199219 852.878906 220.960938 852.480469 220.800781 C 767.199219 152.320312 636.800781 143.359375 636.800781 143.359375 C 635.28125 143.199219 633.839844 143.199219 632.320312 143.359375 C 625.199219 144.320312 619.199219 148.960938 616.320312 155.519531 C 616.320312 155.519531 609.359375 170.800781 604.800781 192.640625 C 564.878906 186.238281 531.28125 184.320312 512 184.320312 C 492.71875 184.320312 459.121094 186.238281 419.199219 192.640625 C 414.640625 170.800781 407.679688 155.519531 407.679688 155.519531 C 404.160156 147.519531 395.921875 142.640625 387.199219 143.359375 Z M 374.398438 187.519531 C 375.921875 191.679688 376.960938 195.601562 378.238281 200.320312 C 332.078125 211.039062 281.519531 228.558594 234.238281 257.921875 C 226.800781 261.039062 221.921875 268.238281 221.679688 276.320312 C 221.519531 284.320312 226.078125 291.761719 233.28125 295.28125 C 240.558594 298.71875 249.199219 297.679688 255.359375 292.480469 C 350.238281 233.679688 470.960938 225.28125 512 225.28125 C 553.039062 225.28125 673.761719 233.679688 768.640625 292.480469 C 774.800781 297.679688 783.441406 298.71875 790.71875 295.28125 C 797.921875 291.761719 802.480469 284.320312 802.320312 276.320312 C 802.078125 268.238281 797.199219 261.039062 789.761719 257.921875 C 742.480469 228.558594 691.921875 211.039062 645.761719 200.320312 C 647.039062 195.601562 648.078125 191.679688 649.601562 187.519531 C 672.960938 190.398438 763.761719 202.640625 825.601562 251.519531 C 829.601562 255.199219 843.519531 275.679688 856.320312 304 C 869.121094 332.320312 882.558594 369.199219 895.359375 411.519531 C 920.320312 494.078125 940.480469 595.921875 941.441406 689.28125 C 918.160156 726.960938 874.480469 754.960938 829.441406 772.480469 C 788.480469 788.398438 750.238281 795.519531 730.238281 797.441406 L 695.679688 750.71875 C 713.28125 745.039062 729.121094 738.878906 743.039062 732.800781 C 794.71875 710.078125 822.398438 686.078125 822.398438 686.078125 C 830.878906 678.480469 831.601562 665.441406 824 656.960938 C 816.398438 648.480469 803.359375 647.761719 794.878906 655.359375 C 794.878906 655.359375 773.441406 674.960938 726.398438 695.679688 C 709.121094 703.28125 688.160156 710.800781 664.320312 717.441406 C 658.800781 716.800781 653.28125 718.398438 648.960938 721.921875 C 610.800781 731.199219 565.441406 737.28125 512 737.28125 C 458.160156 737.28125 412.71875 730.640625 374.398438 721.28125 C 370.078125 718.398438 364.800781 717.199219 359.679688 718.078125 C 335.761719 711.441406 314.960938 703.28125 297.601562 695.679688 C 250.558594 674.960938 229.121094 655.359375 229.121094 655.359375 C 224.480469 651.039062 218.078125 649.199219 211.839844 650.238281 C 203.921875 651.441406 197.359375 657.121094 195.199219 664.878906 C 192.960938 672.558594 195.519531 680.878906 201.601562 686.078125 C 201.601562 686.078125 229.28125 710.078125 280.960938 732.800781 C 294.878906 738.878906 310.71875 745.039062 328.320312 750.71875 L 293.761719 797.441406 C 273.761719 795.519531 235.519531 788.398438 194.558594 772.480469 C 149.519531 754.960938 105.839844 726.960938 82.558594 689.28125 C 83.519531 595.921875 103.679688 494.078125 128.640625 411.519531 C 141.441406 369.199219 154.878906 332.320312 167.679688 304 C 180.480469 275.679688 194.398438 255.199219 198.398438 251.519531 C 260.238281 202.640625 351.039062 190.398438 374.398438 187.519531 Z M 378.878906 430.078125 C 326.640625 430.078125 286.71875 477.519531 286.71875 532.480469 C 286.71875 587.441406 326.640625 634.878906 378.878906 634.878906 C 431.121094 634.878906 471.039062 587.441406 471.039062 532.480469 C 471.039062 477.519531 431.121094 430.078125 378.878906 430.078125 Z M 645.121094 430.078125 C 592.878906 430.078125 552.960938 477.519531 552.960938 532.480469 C 552.960938 587.441406 592.878906 634.878906 645.121094 634.878906 C 697.359375 634.878906 737.28125 587.441406 737.28125 532.480469 C 737.28125 477.519531 697.359375 430.078125 645.121094 430.078125 Z M 378.878906 471.039062 C 405.839844 471.039062 430.078125 496.960938 430.078125 532.480469 C 430.078125 568 405.839844 593.921875 378.878906 593.921875 C 351.921875 593.921875 327.679688 568 327.679688 532.480469 C 327.679688 496.960938 351.921875 471.039062 378.878906 471.039062 Z M 645.121094 471.039062 C 672.078125 471.039062 696.320312 496.960938 696.320312 532.480469 C 696.320312 568 672.078125 593.921875 645.121094 593.921875 C 618.160156 593.921875 593.921875 568 593.921875 532.480469 C 593.921875 496.960938 618.160156 471.039062 645.121094 471.039062 Z M 645.121094 471.039062 "/>
</g>
</svg>
